<?xml version="1.0" standalone="no"?>
<!DOCTYPE svg PUBLIC "-//W3C//DTD SVG 20010904//EN"
 "http://www.w3.org/TR/2001/REC-SVG-20010904/DTD/svg10.dtd">
<svg version="1.0" xmlns="http://www.w3.org/2000/svg"
 width="700.000000pt" height="700.000000pt" viewBox="0 0 700.000000 700.000000"
 preserveAspectRatio="xMidYMid meet">
<metadata>
Created by potrace 1.14, written by Peter Selinger 2001-2017
</metadata>
<g transform="translate(0.000000,700.000000) scale(0.100000,-0.100000)"
fill="#000000" stroke="none">
<path d="M3445 6127 c-70 -154 -125 -273 -196 -425 -22 -46 -39 -85 -39 -86 0
-2 -22 -50 -49 -107 -27 -57 -60 -129 -74 -159 -14 -30 -38 -84 -55 -120 -17
-36 -153 -330 -302 -655 -150 -324 -286 -619 -302 -655 -17 -36 -41 -90 -55
-120 -34 -76 -63 -139 -117 -253 -25 -54 -46 -100 -46 -102 0 -1 -24 -54 -54
-116 -29 -63 -60 -130 -69 -149 -8 -19 -36 -79 -61 -133 -26 -54 -94 -203
-152 -330 -59 -128 -131 -283 -160 -346 -30 -62 -54 -115 -54 -117 0 -2 -19
-43 -41 -91 -23 -49 -79 -171 -126 -273 -47 -102 -107 -232 -134 -289 -27 -57
-49 -105 -49 -106 0 -2 -25 -55 -55 -120 -30 -64 -55 -118 -55 -120 0 -2 -29
-65 -65 -140 -36 -76 -65 -139 -65 -141 0 -1 -25 -56 -55 -120 -31 -64 -54
-119 -51 -121 3 -4 45 25 357 250 86 61 363 260 615 441 491 352 639 459 666
481 9 7 29 22 45 32 15 10 75 52 133 94 213 154 675 486 687 492 12 7 39 -10
242 -153 81 -58 482 -341 537 -380 140 -99 179 -126 193 -135 9 -5 18 -12 21
-16 3 -3 345 -245 760 -539 415 -293 770 -545 787 -558 l33 -24 -16 38 c-8 22
-27 64 -41 94 -14 30 -79 174 -145 320 -142 313 -144 319 -218 480 -31 69 -66
145 -78 170 -11 25 -64 142 -117 260 -53 118 -113 249 -132 290 -19 41 -50
109 -68 150 -18 41 -48 109 -67 150 -19 41 -42 91 -50 110 -9 19 -34 75 -57
123 -23 49 -41 90 -41 92 0 2 -20 45 -44 97 -24 51 -62 134 -84 183 -136 302
-249 551 -283 623 -21 46 -39 86 -39 88 0 2 -16 39 -36 81 -20 43 -113 247
-206 453 -94 206 -183 402 -198 435 -15 33 -71 155 -123 270 -52 116 -106 235
-120 265 -14 30 -93 206 -177 390 -159 352 -181 400 -184 400 0 -1 -32 -69
-71 -153z"/>
</g>
</svg>
